<mxfile host="app.diagrams.net" modified="2023-12-24T15:53:59.369Z" agent="Mozilla/5.0 (Windows NT 10.0; Win64; x64) AppleWebKit/537.36 (KHTML, like Gecko) Chrome/120.0.0.0 Safari/537.36" etag="mJ40SJwkTbKW1A5PXBpY" version="22.1.11" type="google">
  <diagram name="Page-1" id="1WDqgXkMvDE3ou7cJ84F">
    <mxGraphModel grid="1" page="1" gridSize="10" guides="1" tooltips="1" connect="1" arrows="1" fold="1" pageScale="1" pageWidth="850" pageHeight="1100" math="0" shadow="0">
      <root>
        <mxCell id="0" />
        <mxCell id="1" parent="0" />
        <mxCell id="geZDU8rb3LCOGiETENGQ-1" value="ID kartu : 32 bit" style="text;html=1;strokeColor=none;fillColor=none;align=left;verticalAlign=middle;whiteSpace=wrap;rounded=0;" vertex="1" parent="1">
          <mxGeometry x="860" y="30" width="100" height="30" as="geometry" />
        </mxCell>
        <mxCell id="geZDU8rb3LCOGiETENGQ-3" value="Timestamp unix : 32 bit" style="text;html=1;strokeColor=none;fillColor=none;align=center;verticalAlign=middle;whiteSpace=wrap;rounded=0;" vertex="1" parent="1">
          <mxGeometry x="860" y="60" width="130" height="30" as="geometry" />
        </mxCell>
        <mxCell id="geZDU8rb3LCOGiETENGQ-4" value="Opcode : 3 bit" style="text;html=1;strokeColor=none;fillColor=none;align=left;verticalAlign=middle;whiteSpace=wrap;rounded=0;" vertex="1" parent="1">
          <mxGeometry x="860" y="90" width="130" height="30" as="geometry" />
        </mxCell>
        <mxCell id="geZDU8rb3LCOGiETENGQ-9" value="" style="swimlane;startSize=0;" vertex="1" parent="1">
          <mxGeometry x="850" y="30" width="370" height="240" as="geometry" />
        </mxCell>
        <mxCell id="geZDU8rb3LCOGiETENGQ-11" value="CPU" style="text;html=1;strokeColor=none;fillColor=none;align=center;verticalAlign=middle;whiteSpace=wrap;rounded=0;" vertex="1" parent="1">
          <mxGeometry x="850" width="120" height="30" as="geometry" />
        </mxCell>
        <mxCell id="geZDU8rb3LCOGiETENGQ-16" value="" style="swimlane;startSize=0;" vertex="1" parent="1">
          <mxGeometry x="1370" y="120" width="380" height="70" as="geometry" />
        </mxCell>
        <mxCell id="geZDU8rb3LCOGiETENGQ-18" value="menyimpan timestamp masuk dan id kartu&lt;br&gt;&amp;nbsp;" style="text;html=1;strokeColor=none;fillColor=none;align=left;verticalAlign=middle;whiteSpace=wrap;rounded=0;" vertex="1" parent="geZDU8rb3LCOGiETENGQ-16">
          <mxGeometry width="275" height="30" as="geometry" />
        </mxCell>
        <mxCell id="geZDU8rb3LCOGiETENGQ-19" value="vector 64 bit (32(card id) + 32 (timestamp)) dengan address 8 bit" style="text;html=1;strokeColor=none;fillColor=none;align=left;verticalAlign=middle;whiteSpace=wrap;rounded=0;" vertex="1" parent="geZDU8rb3LCOGiETENGQ-16">
          <mxGeometry y="30" width="360" height="30" as="geometry" />
        </mxCell>
        <mxCell id="geZDU8rb3LCOGiETENGQ-17" value="memory" style="text;html=1;strokeColor=none;fillColor=none;align=center;verticalAlign=middle;whiteSpace=wrap;rounded=0;" vertex="1" parent="1">
          <mxGeometry x="1370" y="90" width="120" height="30" as="geometry" />
        </mxCell>
        <mxCell id="geZDU8rb3LCOGiETENGQ-20" value="" style="swimlane;startSize=0;" vertex="1" parent="1">
          <mxGeometry x="460" y="40" width="300" height="70" as="geometry" />
        </mxCell>
        <mxCell id="geZDU8rb3LCOGiETENGQ-21" value="Memberi instruction masuk" style="text;html=1;strokeColor=none;fillColor=none;align=left;verticalAlign=middle;whiteSpace=wrap;rounded=0;" vertex="1" parent="geZDU8rb3LCOGiETENGQ-20">
          <mxGeometry width="275" height="30" as="geometry" />
        </mxCell>
        <mxCell id="geZDU8rb3LCOGiETENGQ-22" value="ada function buat convert unix timetstamp" style="text;html=1;strokeColor=none;fillColor=none;align=left;verticalAlign=middle;whiteSpace=wrap;rounded=0;" vertex="1" parent="geZDU8rb3LCOGiETENGQ-20">
          <mxGeometry y="30" width="260" height="30" as="geometry" />
        </mxCell>
        <mxCell id="geZDU8rb3LCOGiETENGQ-23" value="Interface masuk" style="text;html=1;strokeColor=none;fillColor=none;align=center;verticalAlign=middle;whiteSpace=wrap;rounded=0;" vertex="1" parent="1">
          <mxGeometry x="460" y="10" width="120" height="30" as="geometry" />
        </mxCell>
        <mxCell id="geZDU8rb3LCOGiETENGQ-24" value="" style="swimlane;startSize=0;" vertex="1" parent="1">
          <mxGeometry x="460" y="180" width="300" height="70" as="geometry" />
        </mxCell>
        <mxCell id="geZDU8rb3LCOGiETENGQ-25" value="Memberi instruction keluar" style="text;html=1;strokeColor=none;fillColor=none;align=left;verticalAlign=middle;whiteSpace=wrap;rounded=0;" vertex="1" parent="geZDU8rb3LCOGiETENGQ-24">
          <mxGeometry width="275" height="30" as="geometry" />
        </mxCell>
        <mxCell id="geZDU8rb3LCOGiETENGQ-26" value="ada function buat convert unix timestamp" style="text;html=1;strokeColor=none;fillColor=none;align=left;verticalAlign=middle;whiteSpace=wrap;rounded=0;" vertex="1" parent="geZDU8rb3LCOGiETENGQ-24">
          <mxGeometry y="30" width="260" height="30" as="geometry" />
        </mxCell>
        <mxCell id="geZDU8rb3LCOGiETENGQ-27" value="Interface keluar" style="text;html=1;strokeColor=none;fillColor=none;align=center;verticalAlign=middle;whiteSpace=wrap;rounded=0;" vertex="1" parent="1">
          <mxGeometry x="460" y="150" width="120" height="30" as="geometry" />
        </mxCell>
        <mxCell id="wEV3beaxD2OYFlqm1hYh-1" value="" style="endArrow=classic;html=1;rounded=0;exitX=1;exitY=0.5;exitDx=0;exitDy=0;entryX=0;entryY=0.75;entryDx=0;entryDy=0;" edge="1" parent="1" source="geZDU8rb3LCOGiETENGQ-24" target="geZDU8rb3LCOGiETENGQ-9">
          <mxGeometry width="50" height="50" relative="1" as="geometry">
            <mxPoint x="920" y="300" as="sourcePoint" />
            <mxPoint x="970" y="250" as="targetPoint" />
          </mxGeometry>
        </mxCell>
        <mxCell id="wEV3beaxD2OYFlqm1hYh-2" value="" style="endArrow=classic;html=1;rounded=0;exitX=1;exitY=0.5;exitDx=0;exitDy=0;entryX=0;entryY=0.25;entryDx=0;entryDy=0;" edge="1" parent="1" source="geZDU8rb3LCOGiETENGQ-20" target="geZDU8rb3LCOGiETENGQ-9">
          <mxGeometry width="50" height="50" relative="1" as="geometry">
            <mxPoint x="920" y="280" as="sourcePoint" />
            <mxPoint x="970" y="230" as="targetPoint" />
          </mxGeometry>
        </mxCell>
        <mxCell id="wEV3beaxD2OYFlqm1hYh-3" value="utamain keluar" style="text;html=1;strokeColor=none;fillColor=none;align=center;verticalAlign=middle;whiteSpace=wrap;rounded=0;" vertex="1" parent="1">
          <mxGeometry x="770" y="220" width="60" height="30" as="geometry" />
        </mxCell>
        <mxCell id="wEV3beaxD2OYFlqm1hYh-4" value="" style="endArrow=classic;html=1;rounded=0;exitX=1;exitY=0.5;exitDx=0;exitDy=0;entryX=0;entryY=0;entryDx=0;entryDy=0;" edge="1" parent="1" source="geZDU8rb3LCOGiETENGQ-9" target="geZDU8rb3LCOGiETENGQ-19">
          <mxGeometry width="50" height="50" relative="1" as="geometry">
            <mxPoint x="1180" y="250" as="sourcePoint" />
            <mxPoint x="1230" y="200" as="targetPoint" />
          </mxGeometry>
        </mxCell>
        <mxCell id="wEV3beaxD2OYFlqm1hYh-5" value="memory address&amp;nbsp;" style="text;html=1;strokeColor=none;fillColor=none;align=center;verticalAlign=middle;whiteSpace=wrap;rounded=0;" vertex="1" parent="1">
          <mxGeometry x="1225" y="120" width="60" height="30" as="geometry" />
        </mxCell>
        <mxCell id="wEV3beaxD2OYFlqm1hYh-6" value="" style="endArrow=classic;html=1;rounded=0;exitX=0;exitY=0.75;exitDx=0;exitDy=0;" edge="1" parent="1" source="geZDU8rb3LCOGiETENGQ-19">
          <mxGeometry width="50" height="50" relative="1" as="geometry">
            <mxPoint x="1180" y="250" as="sourcePoint" />
            <mxPoint x="1220" y="175.90909090909088" as="targetPoint" />
          </mxGeometry>
        </mxCell>
        <mxCell id="wEV3beaxD2OYFlqm1hYh-7" value="vector 40 bit" style="text;html=1;strokeColor=none;fillColor=none;align=center;verticalAlign=middle;whiteSpace=wrap;rounded=0;" vertex="1" parent="1">
          <mxGeometry x="1235" y="180" width="95" height="30" as="geometry" />
        </mxCell>
        <mxCell id="wEV3beaxD2OYFlqm1hYh-10" value="" style="rounded=0;whiteSpace=wrap;html=1;fillColor=none;" vertex="1" parent="1">
          <mxGeometry x="-5" y="500" width="315" height="490" as="geometry" />
        </mxCell>
        <mxCell id="wEV3beaxD2OYFlqm1hYh-12" value="MEM_ADDR" style="text;html=1;strokeColor=none;fillColor=none;align=left;verticalAlign=middle;whiteSpace=wrap;rounded=0;" vertex="1" parent="1">
          <mxGeometry x="200" y="510" width="80" height="30" as="geometry" />
        </mxCell>
        <mxCell id="wEV3beaxD2OYFlqm1hYh-13" value="MEM_DATA_IN" style="text;html=1;strokeColor=none;fillColor=none;align=left;verticalAlign=middle;whiteSpace=wrap;rounded=0;" vertex="1" parent="1">
          <mxGeometry x="200" y="540" width="85" height="30" as="geometry" />
        </mxCell>
        <mxCell id="wEV3beaxD2OYFlqm1hYh-14" value="MEM_WR" style="text;html=1;strokeColor=none;fillColor=none;align=left;verticalAlign=middle;whiteSpace=wrap;rounded=0;" vertex="1" parent="1">
          <mxGeometry x="200" y="570" width="85" height="30" as="geometry" />
        </mxCell>
        <mxCell id="wEV3beaxD2OYFlqm1hYh-15" value="MEM_DATA_OUT" style="text;html=1;strokeColor=none;fillColor=none;align=left;verticalAlign=middle;whiteSpace=wrap;rounded=0;" vertex="1" parent="1">
          <mxGeometry x="200" y="600" width="100" height="30" as="geometry" />
        </mxCell>
        <mxCell id="wEV3beaxD2OYFlqm1hYh-25" value="INSTRUCTION2" style="text;html=1;strokeColor=none;fillColor=none;align=left;verticalAlign=middle;whiteSpace=wrap;rounded=0;" vertex="1" parent="1">
          <mxGeometry x="-5" y="755" width="100" height="30" as="geometry" />
        </mxCell>
        <mxCell id="wEV3beaxD2OYFlqm1hYh-26" value="DATA_IN2" style="text;html=1;strokeColor=none;fillColor=none;align=left;verticalAlign=middle;whiteSpace=wrap;rounded=0;" vertex="1" parent="1">
          <mxGeometry x="-5" y="785" width="100" height="30" as="geometry" />
        </mxCell>
        <mxCell id="wEV3beaxD2OYFlqm1hYh-27" value="DONE2" style="text;html=1;strokeColor=none;fillColor=none;align=left;verticalAlign=middle;whiteSpace=wrap;rounded=0;" vertex="1" parent="1">
          <mxGeometry x="-5" y="815" width="100" height="30" as="geometry" />
        </mxCell>
        <mxCell id="wEV3beaxD2OYFlqm1hYh-28" value="WANT_TO_USE2" style="text;html=1;strokeColor=none;fillColor=none;align=left;verticalAlign=middle;whiteSpace=wrap;rounded=0;" vertex="1" parent="1">
          <mxGeometry x="-5" y="845" width="100" height="30" as="geometry" />
        </mxCell>
        <mxCell id="38ZZA4TW1SGq83iiYouS-23" style="edgeStyle=orthogonalEdgeStyle;rounded=0;orthogonalLoop=1;jettySize=auto;html=1;exitX=0;exitY=0.5;exitDx=0;exitDy=0;" edge="1" parent="1" source="wEV3beaxD2OYFlqm1hYh-29" target="wEV3beaxD2OYFlqm1hYh-96">
          <mxGeometry relative="1" as="geometry" />
        </mxCell>
        <mxCell id="wEV3beaxD2OYFlqm1hYh-29" value="CPU_NOT_READY2" style="text;html=1;strokeColor=none;fillColor=none;align=left;verticalAlign=middle;whiteSpace=wrap;rounded=0;" vertex="1" parent="1">
          <mxGeometry x="-5" y="875" width="110" height="30" as="geometry" />
        </mxCell>
        <mxCell id="wEV3beaxD2OYFlqm1hYh-32" value="CPU" style="text;html=1;strokeColor=none;fillColor=none;align=left;verticalAlign=middle;whiteSpace=wrap;rounded=0;" vertex="1" parent="1">
          <mxGeometry x="-5" y="470" width="100" height="30" as="geometry" />
        </mxCell>
        <mxCell id="wEV3beaxD2OYFlqm1hYh-55" value="Menandakan satu instruction selesai (ganti state jika 1)" style="text;strokeColor=none;fillColor=none;align=left;verticalAlign=middle;spacingLeft=4;spacingRight=4;overflow=hidden;points=[[0,0.5],[1,0.5]];portConstraint=eastwest;rotatable=0;whiteSpace=wrap;html=1;" vertex="1" parent="1">
          <mxGeometry x="-380" y="320" width="340" height="30" as="geometry" />
        </mxCell>
        <mxCell id="wEV3beaxD2OYFlqm1hYh-56" value="Ingin menggunakan CPU, 0 ketika standby" style="text;strokeColor=none;fillColor=none;align=left;verticalAlign=middle;spacingLeft=4;spacingRight=4;overflow=hidden;points=[[0,0.5],[1,0.5]];portConstraint=eastwest;rotatable=0;whiteSpace=wrap;html=1;" vertex="1" parent="1">
          <mxGeometry x="-380" y="350" width="320" height="30" as="geometry" />
        </mxCell>
        <mxCell id="wEV3beaxD2OYFlqm1hYh-57" value="Jika 1 jangan berganti state" style="text;strokeColor=none;fillColor=none;align=left;verticalAlign=middle;spacingLeft=4;spacingRight=4;overflow=hidden;points=[[0,0.5],[1,0.5]];portConstraint=eastwest;rotatable=0;whiteSpace=wrap;html=1;" vertex="1" parent="1">
          <mxGeometry x="-380" y="380" width="320" height="30" as="geometry" />
        </mxCell>
        <mxCell id="wEV3beaxD2OYFlqm1hYh-91" value="" style="rounded=0;whiteSpace=wrap;html=1;fillColor=none;" vertex="1" parent="1">
          <mxGeometry x="-380" y="750" width="269" height="220" as="geometry" />
        </mxCell>
        <mxCell id="wEV3beaxD2OYFlqm1hYh-92" value="INSTRUCTION" style="text;html=1;strokeColor=none;fillColor=none;align=right;verticalAlign=middle;whiteSpace=wrap;rounded=0;" vertex="1" parent="1">
          <mxGeometry x="-211" y="755" width="100" height="30" as="geometry" />
        </mxCell>
        <mxCell id="wEV3beaxD2OYFlqm1hYh-93" value="DATA_IN" style="text;html=1;strokeColor=none;fillColor=none;align=right;verticalAlign=middle;whiteSpace=wrap;rounded=0;" vertex="1" parent="1">
          <mxGeometry x="-211" y="785" width="100" height="30" as="geometry" />
        </mxCell>
        <mxCell id="wEV3beaxD2OYFlqm1hYh-94" value="DONE" style="text;html=1;strokeColor=none;fillColor=none;align=right;verticalAlign=middle;whiteSpace=wrap;rounded=0;" vertex="1" parent="1">
          <mxGeometry x="-211" y="815" width="100" height="30" as="geometry" />
        </mxCell>
        <mxCell id="wEV3beaxD2OYFlqm1hYh-95" value="WANT_TO_USE" style="text;html=1;strokeColor=none;fillColor=none;align=right;verticalAlign=middle;whiteSpace=wrap;rounded=0;" vertex="1" parent="1">
          <mxGeometry x="-211" y="845" width="100" height="30" as="geometry" />
        </mxCell>
        <mxCell id="wEV3beaxD2OYFlqm1hYh-96" value="CPU_NOT_READY" style="text;html=1;strokeColor=none;fillColor=none;align=right;verticalAlign=middle;whiteSpace=wrap;rounded=0;" vertex="1" parent="1">
          <mxGeometry x="-220" y="875" width="110" height="30" as="geometry" />
        </mxCell>
        <mxCell id="wEV3beaxD2OYFlqm1hYh-97" value="INTERFACE2 (Keluar)" style="text;html=1;strokeColor=none;fillColor=none;align=left;verticalAlign=middle;whiteSpace=wrap;rounded=0;" vertex="1" parent="1">
          <mxGeometry x="-380" y="720" width="130" height="30" as="geometry" />
        </mxCell>
        <mxCell id="wEV3beaxD2OYFlqm1hYh-106" value="DATA_OUT" style="text;html=1;strokeColor=none;fillColor=none;align=right;verticalAlign=middle;whiteSpace=wrap;rounded=0;" vertex="1" parent="1">
          <mxGeometry x="-221" y="905" width="110" height="30" as="geometry" />
        </mxCell>
        <mxCell id="wEV3beaxD2OYFlqm1hYh-108" value="11" style="text;html=1;strokeColor=none;fillColor=none;align=center;verticalAlign=middle;whiteSpace=wrap;rounded=0;" vertex="1" parent="1">
          <mxGeometry x="-90" y="740" width="60" height="30" as="geometry" />
        </mxCell>
        <mxCell id="wEV3beaxD2OYFlqm1hYh-109" value="64" style="text;html=1;strokeColor=none;fillColor=none;align=center;verticalAlign=middle;whiteSpace=wrap;rounded=0;" vertex="1" parent="1">
          <mxGeometry x="-90" y="775" width="60" height="30" as="geometry" />
        </mxCell>
        <mxCell id="wEV3beaxD2OYFlqm1hYh-110" value="1" style="text;html=1;strokeColor=none;fillColor=none;align=center;verticalAlign=middle;whiteSpace=wrap;rounded=0;" vertex="1" parent="1">
          <mxGeometry x="-90" y="805" width="60" height="30" as="geometry" />
        </mxCell>
        <mxCell id="wEV3beaxD2OYFlqm1hYh-111" value="1" style="text;html=1;strokeColor=none;fillColor=none;align=center;verticalAlign=middle;whiteSpace=wrap;rounded=0;" vertex="1" parent="1">
          <mxGeometry x="-90" y="835" width="60" height="30" as="geometry" />
        </mxCell>
        <mxCell id="wEV3beaxD2OYFlqm1hYh-112" value="1" style="text;html=1;strokeColor=none;fillColor=none;align=center;verticalAlign=middle;whiteSpace=wrap;rounded=0;" vertex="1" parent="1">
          <mxGeometry x="-90" y="860" width="60" height="30" as="geometry" />
        </mxCell>
        <mxCell id="wEV3beaxD2OYFlqm1hYh-113" value="64" style="text;html=1;strokeColor=none;fillColor=none;align=center;verticalAlign=middle;whiteSpace=wrap;rounded=0;" vertex="1" parent="1">
          <mxGeometry x="-90" y="890" width="60" height="30" as="geometry" />
        </mxCell>
        <mxCell id="wEV3beaxD2OYFlqm1hYh-115" value="DATA_OUT2" style="text;html=1;strokeColor=none;fillColor=none;align=left;verticalAlign=middle;whiteSpace=wrap;rounded=0;" vertex="1" parent="1">
          <mxGeometry x="-5" y="905" width="110" height="30" as="geometry" />
        </mxCell>
        <mxCell id="wEV3beaxD2OYFlqm1hYh-116" value="LIAT CS 9 : )" style="text;html=1;strokeColor=none;fillColor=none;align=center;verticalAlign=middle;whiteSpace=wrap;rounded=0;" vertex="1" parent="1">
          <mxGeometry x="330" y="560" width="95" height="30" as="geometry" />
        </mxCell>
        <mxCell id="38ZZA4TW1SGq83iiYouS-1" value="CLK" style="text;html=1;strokeColor=none;fillColor=none;align=left;verticalAlign=middle;whiteSpace=wrap;rounded=0;" vertex="1" parent="1">
          <mxGeometry x="-5" y="935" width="110" height="30" as="geometry" />
        </mxCell>
        <mxCell id="38ZZA4TW1SGq83iiYouS-11" value="CLK" style="text;html=1;strokeColor=none;fillColor=none;align=right;verticalAlign=middle;whiteSpace=wrap;rounded=0;" vertex="1" parent="1">
          <mxGeometry x="-221" y="935" width="110" height="30" as="geometry" />
        </mxCell>
        <mxCell id="38ZZA4TW1SGq83iiYouS-12" value="CARD_ID" style="text;html=1;strokeColor=none;fillColor=none;align=left;verticalAlign=middle;whiteSpace=wrap;rounded=0;" vertex="1" parent="1">
          <mxGeometry x="-380" y="760" width="100" height="30" as="geometry" />
        </mxCell>
        <mxCell id="38ZZA4TW1SGq83iiYouS-13" value="BALANCE" style="text;html=1;strokeColor=none;fillColor=none;align=left;verticalAlign=middle;whiteSpace=wrap;rounded=0;" vertex="1" parent="1">
          <mxGeometry x="-380" y="790" width="100" height="30" as="geometry" />
        </mxCell>
        <mxCell id="38ZZA4TW1SGq83iiYouS-14" value="DATE" style="text;html=1;strokeColor=none;fillColor=none;align=left;verticalAlign=middle;whiteSpace=wrap;rounded=0;" vertex="1" parent="1">
          <mxGeometry x="-380" y="820" width="100" height="30" as="geometry" />
        </mxCell>
        <mxCell id="38ZZA4TW1SGq83iiYouS-15" value="MONTH" style="text;html=1;strokeColor=none;fillColor=none;align=left;verticalAlign=middle;whiteSpace=wrap;rounded=0;" vertex="1" parent="1">
          <mxGeometry x="-380" y="845" width="100" height="30" as="geometry" />
        </mxCell>
        <mxCell id="38ZZA4TW1SGq83iiYouS-16" value="YEAR" style="text;html=1;strokeColor=none;fillColor=none;align=left;verticalAlign=middle;whiteSpace=wrap;rounded=0;" vertex="1" parent="1">
          <mxGeometry x="-380" y="875" width="100" height="30" as="geometry" />
        </mxCell>
        <mxCell id="38ZZA4TW1SGq83iiYouS-17" value="" style="endArrow=classic;html=1;rounded=0;exitX=1;exitY=0.5;exitDx=0;exitDy=0;entryX=0;entryY=0.5;entryDx=0;entryDy=0;" edge="1" parent="1" source="wEV3beaxD2OYFlqm1hYh-92" target="wEV3beaxD2OYFlqm1hYh-25">
          <mxGeometry width="50" height="50" relative="1" as="geometry">
            <mxPoint x="-310" y="860" as="sourcePoint" />
            <mxPoint x="-260" y="810" as="targetPoint" />
          </mxGeometry>
        </mxCell>
        <mxCell id="38ZZA4TW1SGq83iiYouS-18" value="" style="endArrow=classic;html=1;rounded=0;exitX=1;exitY=0.5;exitDx=0;exitDy=0;" edge="1" parent="1" source="wEV3beaxD2OYFlqm1hYh-93" target="wEV3beaxD2OYFlqm1hYh-26">
          <mxGeometry width="50" height="50" relative="1" as="geometry">
            <mxPoint x="-80" y="800" as="sourcePoint" />
            <mxPoint x="-30" y="750" as="targetPoint" />
          </mxGeometry>
        </mxCell>
        <mxCell id="38ZZA4TW1SGq83iiYouS-20" value="" style="endArrow=classic;html=1;rounded=0;exitX=1;exitY=0.5;exitDx=0;exitDy=0;" edge="1" parent="1" source="wEV3beaxD2OYFlqm1hYh-95" target="wEV3beaxD2OYFlqm1hYh-28">
          <mxGeometry width="50" height="50" relative="1" as="geometry">
            <mxPoint x="-100" y="870" as="sourcePoint" />
            <mxPoint x="-50" y="820" as="targetPoint" />
          </mxGeometry>
        </mxCell>
        <mxCell id="38ZZA4TW1SGq83iiYouS-24" value="" style="endArrow=classic;html=1;rounded=0;exitX=0;exitY=0.5;exitDx=0;exitDy=0;entryX=1;entryY=0.5;entryDx=0;entryDy=0;" edge="1" parent="1" source="wEV3beaxD2OYFlqm1hYh-27" target="wEV3beaxD2OYFlqm1hYh-94">
          <mxGeometry width="50" height="50" relative="1" as="geometry">
            <mxPoint x="-40" y="900" as="sourcePoint" />
            <mxPoint x="10" y="850" as="targetPoint" />
          </mxGeometry>
        </mxCell>
        <mxCell id="38ZZA4TW1SGq83iiYouS-25" value="" style="endArrow=classic;html=1;rounded=0;exitX=0;exitY=0.5;exitDx=0;exitDy=0;entryX=1;entryY=0.5;entryDx=0;entryDy=0;" edge="1" parent="1" source="wEV3beaxD2OYFlqm1hYh-115" target="wEV3beaxD2OYFlqm1hYh-106">
          <mxGeometry width="50" height="50" relative="1" as="geometry">
            <mxPoint x="-30" y="940" as="sourcePoint" />
            <mxPoint x="20" y="890" as="targetPoint" />
          </mxGeometry>
        </mxCell>
        <mxCell id="38ZZA4TW1SGq83iiYouS-26" value="" style="endArrow=classic;html=1;rounded=0;exitX=0;exitY=0.5;exitDx=0;exitDy=0;entryX=1;entryY=0.5;entryDx=0;entryDy=0;" edge="1" parent="1" source="38ZZA4TW1SGq83iiYouS-1" target="38ZZA4TW1SGq83iiYouS-11">
          <mxGeometry width="50" height="50" relative="1" as="geometry">
            <mxPoint x="-30" y="930" as="sourcePoint" />
            <mxPoint x="20" y="880" as="targetPoint" />
          </mxGeometry>
        </mxCell>
        <mxCell id="38ZZA4TW1SGq83iiYouS-27" value="1" style="text;html=1;strokeColor=none;fillColor=none;align=center;verticalAlign=middle;whiteSpace=wrap;rounded=0;" vertex="1" parent="1">
          <mxGeometry x="-90" y="920" width="60" height="30" as="geometry" />
        </mxCell>
        <mxCell id="38ZZA4TW1SGq83iiYouS-28" value="INSTRUCTION1" style="text;html=1;strokeColor=none;fillColor=none;align=left;verticalAlign=middle;whiteSpace=wrap;rounded=0;" vertex="1" parent="1">
          <mxGeometry x="-5" y="495" width="100" height="30" as="geometry" />
        </mxCell>
        <mxCell id="38ZZA4TW1SGq83iiYouS-29" value="DATA_IN1" style="text;html=1;strokeColor=none;fillColor=none;align=left;verticalAlign=middle;whiteSpace=wrap;rounded=0;" vertex="1" parent="1">
          <mxGeometry x="-5" y="525" width="100" height="30" as="geometry" />
        </mxCell>
        <mxCell id="38ZZA4TW1SGq83iiYouS-30" value="DONE1" style="text;html=1;strokeColor=none;fillColor=none;align=left;verticalAlign=middle;whiteSpace=wrap;rounded=0;" vertex="1" parent="1">
          <mxGeometry x="-5" y="555" width="100" height="30" as="geometry" />
        </mxCell>
        <mxCell id="38ZZA4TW1SGq83iiYouS-31" value="WANT_TO_USE1" style="text;html=1;strokeColor=none;fillColor=none;align=left;verticalAlign=middle;whiteSpace=wrap;rounded=0;" vertex="1" parent="1">
          <mxGeometry x="-5" y="585" width="100" height="30" as="geometry" />
        </mxCell>
        <mxCell id="38ZZA4TW1SGq83iiYouS-32" style="edgeStyle=orthogonalEdgeStyle;rounded=0;orthogonalLoop=1;jettySize=auto;html=1;exitX=0;exitY=0.5;exitDx=0;exitDy=0;" edge="1" parent="1" source="38ZZA4TW1SGq83iiYouS-33" target="38ZZA4TW1SGq83iiYouS-39">
          <mxGeometry relative="1" as="geometry" />
        </mxCell>
        <mxCell id="38ZZA4TW1SGq83iiYouS-33" value="CPU_NOT_READY1" style="text;html=1;strokeColor=none;fillColor=none;align=left;verticalAlign=middle;whiteSpace=wrap;rounded=0;" vertex="1" parent="1">
          <mxGeometry x="-5" y="615" width="110" height="30" as="geometry" />
        </mxCell>
        <mxCell id="38ZZA4TW1SGq83iiYouS-34" value="" style="rounded=0;whiteSpace=wrap;html=1;fillColor=none;" vertex="1" parent="1">
          <mxGeometry x="-380" y="490" width="269" height="220" as="geometry" />
        </mxCell>
        <mxCell id="38ZZA4TW1SGq83iiYouS-35" value="INSTRUCTION" style="text;html=1;strokeColor=none;fillColor=none;align=right;verticalAlign=middle;whiteSpace=wrap;rounded=0;" vertex="1" parent="1">
          <mxGeometry x="-211" y="495" width="100" height="30" as="geometry" />
        </mxCell>
        <mxCell id="38ZZA4TW1SGq83iiYouS-36" value="DATA_IN" style="text;html=1;strokeColor=none;fillColor=none;align=right;verticalAlign=middle;whiteSpace=wrap;rounded=0;" vertex="1" parent="1">
          <mxGeometry x="-211" y="525" width="100" height="30" as="geometry" />
        </mxCell>
        <mxCell id="38ZZA4TW1SGq83iiYouS-37" value="DONE" style="text;html=1;strokeColor=none;fillColor=none;align=right;verticalAlign=middle;whiteSpace=wrap;rounded=0;" vertex="1" parent="1">
          <mxGeometry x="-211" y="555" width="100" height="30" as="geometry" />
        </mxCell>
        <mxCell id="38ZZA4TW1SGq83iiYouS-38" value="WANT_TO_USE" style="text;html=1;strokeColor=none;fillColor=none;align=right;verticalAlign=middle;whiteSpace=wrap;rounded=0;" vertex="1" parent="1">
          <mxGeometry x="-211" y="585" width="100" height="30" as="geometry" />
        </mxCell>
        <mxCell id="38ZZA4TW1SGq83iiYouS-39" value="CPU_NOT_READY" style="text;html=1;strokeColor=none;fillColor=none;align=right;verticalAlign=middle;whiteSpace=wrap;rounded=0;" vertex="1" parent="1">
          <mxGeometry x="-220" y="615" width="110" height="30" as="geometry" />
        </mxCell>
        <mxCell id="38ZZA4TW1SGq83iiYouS-40" value="INTERFACE1 (Masuk)" style="text;html=1;strokeColor=none;fillColor=none;align=left;verticalAlign=middle;whiteSpace=wrap;rounded=0;" vertex="1" parent="1">
          <mxGeometry x="-380" y="460" width="130" height="30" as="geometry" />
        </mxCell>
        <mxCell id="38ZZA4TW1SGq83iiYouS-41" value="DATA_OUT" style="text;html=1;strokeColor=none;fillColor=none;align=right;verticalAlign=middle;whiteSpace=wrap;rounded=0;" vertex="1" parent="1">
          <mxGeometry x="-221" y="645" width="110" height="30" as="geometry" />
        </mxCell>
        <mxCell id="38ZZA4TW1SGq83iiYouS-42" value="11" style="text;html=1;strokeColor=none;fillColor=none;align=center;verticalAlign=middle;whiteSpace=wrap;rounded=0;" vertex="1" parent="1">
          <mxGeometry x="-90" y="480" width="60" height="30" as="geometry" />
        </mxCell>
        <mxCell id="38ZZA4TW1SGq83iiYouS-43" value="64" style="text;html=1;strokeColor=none;fillColor=none;align=center;verticalAlign=middle;whiteSpace=wrap;rounded=0;" vertex="1" parent="1">
          <mxGeometry x="-90" y="515" width="60" height="30" as="geometry" />
        </mxCell>
        <mxCell id="38ZZA4TW1SGq83iiYouS-44" value="1" style="text;html=1;strokeColor=none;fillColor=none;align=center;verticalAlign=middle;whiteSpace=wrap;rounded=0;" vertex="1" parent="1">
          <mxGeometry x="-90" y="545" width="60" height="30" as="geometry" />
        </mxCell>
        <mxCell id="38ZZA4TW1SGq83iiYouS-45" value="1" style="text;html=1;strokeColor=none;fillColor=none;align=center;verticalAlign=middle;whiteSpace=wrap;rounded=0;" vertex="1" parent="1">
          <mxGeometry x="-90" y="575" width="60" height="30" as="geometry" />
        </mxCell>
        <mxCell id="38ZZA4TW1SGq83iiYouS-46" value="1" style="text;html=1;strokeColor=none;fillColor=none;align=center;verticalAlign=middle;whiteSpace=wrap;rounded=0;" vertex="1" parent="1">
          <mxGeometry x="-90" y="600" width="60" height="30" as="geometry" />
        </mxCell>
        <mxCell id="38ZZA4TW1SGq83iiYouS-47" value="64" style="text;html=1;strokeColor=none;fillColor=none;align=center;verticalAlign=middle;whiteSpace=wrap;rounded=0;" vertex="1" parent="1">
          <mxGeometry x="-90" y="630" width="60" height="30" as="geometry" />
        </mxCell>
        <mxCell id="38ZZA4TW1SGq83iiYouS-48" value="DATA_OUT1" style="text;html=1;strokeColor=none;fillColor=none;align=left;verticalAlign=middle;whiteSpace=wrap;rounded=0;" vertex="1" parent="1">
          <mxGeometry x="-5" y="645" width="110" height="30" as="geometry" />
        </mxCell>
        <mxCell id="38ZZA4TW1SGq83iiYouS-49" value="CLK" style="text;html=1;strokeColor=none;fillColor=none;align=left;verticalAlign=middle;whiteSpace=wrap;rounded=0;" vertex="1" parent="1">
          <mxGeometry x="-5" y="675" width="110" height="30" as="geometry" />
        </mxCell>
        <mxCell id="38ZZA4TW1SGq83iiYouS-50" value="CLK" style="text;html=1;strokeColor=none;fillColor=none;align=right;verticalAlign=middle;whiteSpace=wrap;rounded=0;" vertex="1" parent="1">
          <mxGeometry x="-221" y="675" width="110" height="30" as="geometry" />
        </mxCell>
        <mxCell id="38ZZA4TW1SGq83iiYouS-51" value="CARD_ID" style="text;html=1;strokeColor=none;fillColor=none;align=left;verticalAlign=middle;whiteSpace=wrap;rounded=0;" vertex="1" parent="1">
          <mxGeometry x="-380" y="500" width="100" height="30" as="geometry" />
        </mxCell>
        <mxCell id="38ZZA4TW1SGq83iiYouS-53" value="DATE" style="text;html=1;strokeColor=none;fillColor=none;align=left;verticalAlign=middle;whiteSpace=wrap;rounded=0;" vertex="1" parent="1">
          <mxGeometry x="-381" y="530" width="100" height="30" as="geometry" />
        </mxCell>
        <mxCell id="38ZZA4TW1SGq83iiYouS-54" value="MONTH" style="text;html=1;strokeColor=none;fillColor=none;align=left;verticalAlign=middle;whiteSpace=wrap;rounded=0;" vertex="1" parent="1">
          <mxGeometry x="-381" y="555" width="100" height="30" as="geometry" />
        </mxCell>
        <mxCell id="38ZZA4TW1SGq83iiYouS-55" value="YEAR" style="text;html=1;strokeColor=none;fillColor=none;align=left;verticalAlign=middle;whiteSpace=wrap;rounded=0;" vertex="1" parent="1">
          <mxGeometry x="-381" y="585" width="100" height="30" as="geometry" />
        </mxCell>
        <mxCell id="38ZZA4TW1SGq83iiYouS-56" value="" style="endArrow=classic;html=1;rounded=0;exitX=1;exitY=0.5;exitDx=0;exitDy=0;entryX=0;entryY=0.5;entryDx=0;entryDy=0;" edge="1" parent="1" source="38ZZA4TW1SGq83iiYouS-35" target="38ZZA4TW1SGq83iiYouS-28">
          <mxGeometry width="50" height="50" relative="1" as="geometry">
            <mxPoint x="-310" y="600" as="sourcePoint" />
            <mxPoint x="-260" y="550" as="targetPoint" />
          </mxGeometry>
        </mxCell>
        <mxCell id="38ZZA4TW1SGq83iiYouS-57" value="" style="endArrow=classic;html=1;rounded=0;exitX=1;exitY=0.5;exitDx=0;exitDy=0;" edge="1" parent="1" source="38ZZA4TW1SGq83iiYouS-36" target="38ZZA4TW1SGq83iiYouS-29">
          <mxGeometry width="50" height="50" relative="1" as="geometry">
            <mxPoint x="-80" y="540" as="sourcePoint" />
            <mxPoint x="-30" y="490" as="targetPoint" />
          </mxGeometry>
        </mxCell>
        <mxCell id="38ZZA4TW1SGq83iiYouS-58" value="" style="endArrow=classic;html=1;rounded=0;exitX=1;exitY=0.5;exitDx=0;exitDy=0;" edge="1" parent="1" source="38ZZA4TW1SGq83iiYouS-38" target="38ZZA4TW1SGq83iiYouS-31">
          <mxGeometry width="50" height="50" relative="1" as="geometry">
            <mxPoint x="-100" y="610" as="sourcePoint" />
            <mxPoint x="-50" y="560" as="targetPoint" />
          </mxGeometry>
        </mxCell>
        <mxCell id="38ZZA4TW1SGq83iiYouS-59" value="" style="endArrow=classic;html=1;rounded=0;exitX=0;exitY=0.5;exitDx=0;exitDy=0;entryX=1;entryY=0.5;entryDx=0;entryDy=0;" edge="1" parent="1" source="38ZZA4TW1SGq83iiYouS-30" target="38ZZA4TW1SGq83iiYouS-37">
          <mxGeometry width="50" height="50" relative="1" as="geometry">
            <mxPoint x="-40" y="640" as="sourcePoint" />
            <mxPoint x="10" y="590" as="targetPoint" />
          </mxGeometry>
        </mxCell>
        <mxCell id="38ZZA4TW1SGq83iiYouS-60" value="" style="endArrow=classic;html=1;rounded=0;exitX=0;exitY=0.5;exitDx=0;exitDy=0;" edge="1" parent="1" source="38ZZA4TW1SGq83iiYouS-48">
          <mxGeometry width="50" height="50" relative="1" as="geometry">
            <mxPoint x="-30" y="680" as="sourcePoint" />
            <mxPoint x="-111" y="660" as="targetPoint" />
          </mxGeometry>
        </mxCell>
        <mxCell id="38ZZA4TW1SGq83iiYouS-61" value="" style="endArrow=classic;html=1;rounded=0;exitX=0;exitY=0.5;exitDx=0;exitDy=0;entryX=1;entryY=0.5;entryDx=0;entryDy=0;" edge="1" parent="1" source="38ZZA4TW1SGq83iiYouS-49" target="38ZZA4TW1SGq83iiYouS-50">
          <mxGeometry width="50" height="50" relative="1" as="geometry">
            <mxPoint x="-30" y="670" as="sourcePoint" />
            <mxPoint x="20" y="620" as="targetPoint" />
          </mxGeometry>
        </mxCell>
        <mxCell id="38ZZA4TW1SGq83iiYouS-62" value="1" style="text;html=1;strokeColor=none;fillColor=none;align=center;verticalAlign=middle;whiteSpace=wrap;rounded=0;" vertex="1" parent="1">
          <mxGeometry x="-90" y="660" width="60" height="30" as="geometry" />
        </mxCell>
        <mxCell id="38ZZA4TW1SGq83iiYouS-63" value="DONE" style="text;html=1;strokeColor=none;fillColor=none;align=right;verticalAlign=middle;whiteSpace=wrap;rounded=0;" vertex="1" parent="1">
          <mxGeometry x="-481" y="320" width="100" height="30" as="geometry" />
        </mxCell>
        <mxCell id="38ZZA4TW1SGq83iiYouS-64" value="WANT_TO_USE" style="text;html=1;strokeColor=none;fillColor=none;align=right;verticalAlign=middle;whiteSpace=wrap;rounded=0;" vertex="1" parent="1">
          <mxGeometry x="-481" y="350" width="100" height="30" as="geometry" />
        </mxCell>
        <mxCell id="38ZZA4TW1SGq83iiYouS-65" value="CPU_NOT_READY" style="text;html=1;strokeColor=none;fillColor=none;align=right;verticalAlign=middle;whiteSpace=wrap;rounded=0;" vertex="1" parent="1">
          <mxGeometry x="-490" y="380" width="110" height="30" as="geometry" />
        </mxCell>
        <mxCell id="38ZZA4TW1SGq83iiYouS-66" value="" style="endArrow=classic;startArrow=classic;html=1;rounded=0;exitX=0;exitY=0.5;exitDx=0;exitDy=0;" edge="1" parent="1" source="38ZZA4TW1SGq83iiYouS-13">
          <mxGeometry width="50" height="50" relative="1" as="geometry">
            <mxPoint x="-190" y="670" as="sourcePoint" />
            <mxPoint x="-450" y="805" as="targetPoint" />
          </mxGeometry>
        </mxCell>
        <mxCell id="38ZZA4TW1SGq83iiYouS-67" value="" style="endArrow=classic;html=1;rounded=0;entryX=0;entryY=0.5;entryDx=0;entryDy=0;" edge="1" parent="1" target="38ZZA4TW1SGq83iiYouS-12">
          <mxGeometry width="50" height="50" relative="1" as="geometry">
            <mxPoint x="-450" y="775" as="sourcePoint" />
            <mxPoint x="-300" y="710" as="targetPoint" />
          </mxGeometry>
        </mxCell>
        <mxCell id="38ZZA4TW1SGq83iiYouS-68" value="" style="endArrow=classic;html=1;rounded=0;exitX=0;exitY=0.5;exitDx=0;exitDy=0;" edge="1" parent="1" source="38ZZA4TW1SGq83iiYouS-14">
          <mxGeometry width="50" height="50" relative="1" as="geometry">
            <mxPoint x="-440" y="810" as="sourcePoint" />
            <mxPoint x="-450" y="835" as="targetPoint" />
          </mxGeometry>
        </mxCell>
        <mxCell id="38ZZA4TW1SGq83iiYouS-69" value="" style="endArrow=classic;html=1;rounded=0;exitX=0;exitY=0.5;exitDx=0;exitDy=0;" edge="1" parent="1">
          <mxGeometry width="50" height="50" relative="1" as="geometry">
            <mxPoint x="-381" y="860" as="sourcePoint" />
            <mxPoint x="-451" y="860" as="targetPoint" />
          </mxGeometry>
        </mxCell>
        <mxCell id="38ZZA4TW1SGq83iiYouS-70" value="" style="endArrow=classic;html=1;rounded=0;exitX=0;exitY=0.5;exitDx=0;exitDy=0;" edge="1" parent="1">
          <mxGeometry width="50" height="50" relative="1" as="geometry">
            <mxPoint x="-380" y="890" as="sourcePoint" />
            <mxPoint x="-450" y="890" as="targetPoint" />
          </mxGeometry>
        </mxCell>
        <mxCell id="38ZZA4TW1SGq83iiYouS-72" value="" style="endArrow=classic;html=1;rounded=0;entryX=0;entryY=0.5;entryDx=0;entryDy=0;" edge="1" parent="1">
          <mxGeometry width="50" height="50" relative="1" as="geometry">
            <mxPoint x="-451" y="514.39" as="sourcePoint" />
            <mxPoint x="-381" y="514.39" as="targetPoint" />
          </mxGeometry>
        </mxCell>
        <mxCell id="38ZZA4TW1SGq83iiYouS-73" value="" style="endArrow=classic;html=1;rounded=0;exitX=0;exitY=0.5;exitDx=0;exitDy=0;" edge="1" parent="1">
          <mxGeometry width="50" height="50" relative="1" as="geometry">
            <mxPoint x="-380" y="544.65" as="sourcePoint" />
            <mxPoint x="-450" y="544.65" as="targetPoint" />
          </mxGeometry>
        </mxCell>
        <mxCell id="38ZZA4TW1SGq83iiYouS-74" value="" style="endArrow=classic;html=1;rounded=0;exitX=0;exitY=0.5;exitDx=0;exitDy=0;" edge="1" parent="1">
          <mxGeometry width="50" height="50" relative="1" as="geometry">
            <mxPoint x="-381" y="569.65" as="sourcePoint" />
            <mxPoint x="-451" y="569.65" as="targetPoint" />
          </mxGeometry>
        </mxCell>
        <mxCell id="38ZZA4TW1SGq83iiYouS-75" value="" style="endArrow=classic;html=1;rounded=0;exitX=0;exitY=0.5;exitDx=0;exitDy=0;" edge="1" parent="1">
          <mxGeometry width="50" height="50" relative="1" as="geometry">
            <mxPoint x="-380" y="599.65" as="sourcePoint" />
            <mxPoint x="-450" y="599.65" as="targetPoint" />
          </mxGeometry>
        </mxCell>
        <mxCell id="38ZZA4TW1SGq83iiYouS-76" value="0 ketika tidak ada mobil" style="text;html=1;strokeColor=none;fillColor=none;align=center;verticalAlign=middle;whiteSpace=wrap;rounded=0;" vertex="1" parent="1">
          <mxGeometry x="-580" y="500" width="130" height="30" as="geometry" />
        </mxCell>
        <mxCell id="38ZZA4TW1SGq83iiYouS-78" value="0 ketika tidak ada mobil" style="text;html=1;strokeColor=none;fillColor=none;align=center;verticalAlign=middle;whiteSpace=wrap;rounded=0;" vertex="1" parent="1">
          <mxGeometry x="-670" y="760" width="220" height="30" as="geometry" />
        </mxCell>
        <mxCell id="38ZZA4TW1SGq83iiYouS-79" value="CLK" style="text;html=1;strokeColor=none;fillColor=none;align=left;verticalAlign=middle;whiteSpace=wrap;rounded=0;" vertex="1" parent="1">
          <mxGeometry x="200" y="630" width="100" height="30" as="geometry" />
        </mxCell>
        <mxCell id="38ZZA4TW1SGq83iiYouS-80" value="RST" style="text;html=1;strokeColor=none;fillColor=none;align=left;verticalAlign=middle;whiteSpace=wrap;rounded=0;" vertex="1" parent="1">
          <mxGeometry x="200" y="660" width="100" height="30" as="geometry" />
        </mxCell>
      </root>
    </mxGraphModel>
  </diagram>
</mxfile>
